<svg width="187" height="62" viewBox="0 0 187 62" fill="none" xmlns="http://www.w3.org/2000/svg">
<path d="M52.4482 36.0027C52.4482 43.6999 46.209 49.9415 38.5094 49.9415C31.7158 49.9415 26.0544 45.0793 24.8214 38.6434C24.6566 37.789 24.5706 36.9051 24.5706 36.0027C24.5706 35.7507 24.5779 35.5011 24.5902 35.2528H36.1428V38.0558C36.6087 38.5057 37.2333 38.7811 37.9193 38.7811C39.3048 38.7811 40.4383 37.6611 40.5293 36.2424C40.5342 36.1822 40.5354 36.1207 40.5354 36.0592C40.5354 35.4888 40.3658 34.9577 40.0744 34.5213L40.5354 33.6865L41.6923 31.5867C42.0721 31.867 42.4164 32.1928 42.7176 32.5543C43.5536 33.5587 44.0552 34.8495 44.0552 36.2584C44.0552 39.4647 41.4587 42.0611 38.2537 42.0611C35.8982 42.0611 33.8709 40.6596 32.9624 38.6434H28.2071C29.3836 43.2376 33.5512 46.6357 38.5106 46.6357C44.3834 46.6357 49.1436 41.8743 49.1436 36.0027C49.1436 32.7842 47.7138 29.8975 45.4505 27.949C45.0608 27.6096 44.644 27.3023 44.2064 27.0232L45.8033 24.1231C46.2742 24.412 46.7254 24.7292 47.1569 25.0722C50.3804 27.6219 52.4482 31.5707 52.4482 36.0027Z" fill="url(#paint0_linear_50_222)"/>
<path d="M40.5293 36.2424C40.5343 36.1822 40.5355 36.1207 40.5355 36.0592C40.5355 35.4888 40.3658 34.9577 40.0745 34.5213L40.5355 33.6865L41.6923 31.5867C42.0722 31.867 42.4165 32.1928 42.7177 32.5542L40.5293 36.2424Z" fill="#CFCCC9"/>
<path d="M47.1568 25.071L45.4504 27.9477C45.0607 27.6084 44.644 27.3011 44.2063 27.022L45.8033 24.1219C46.2741 24.4108 46.7265 24.728 47.1568 25.071Z" fill="#CFCCC9"/>
<path d="M25.8911 11.0854V22.0639H34.9001L34.6358 22.6109L32.3565 27.3306L32.3552 27.3318L31.2672 29.5877L31.2992 32.8001C31.2992 32.8001 32.3098 32.7792 33.5896 32.8075C35.4386 32.8456 37.8125 33.0521 38.5772 33.4259C38.7345 33.4689 38.887 33.5255 39.0308 33.598C39.4513 33.8033 39.8127 34.1229 40.0721 34.5188C40.0734 34.52 40.0746 34.52 40.0746 34.5213L40.5356 33.6865L41.6925 31.5867L44.2078 27.0232L45.8048 24.1231L46.5166 22.8322L51.176 14.3777V11.0854H25.8911ZM42.8481 22.7523L41.2523 25.7262L38.8956 30.1188L34.8275 29.6111L36.8413 25.4988L38.5243 22.0626L40.082 18.8822H29.1367V14.1835H47.4448L42.8481 22.7523Z" fill="url(#paint1_linear_50_222)"/>
<path d="M3.94019 42.87H0V18.1556H3.94142V28.5759H14.5953V18.1556H18.5367V42.87H14.5953V32.049H3.94142V42.87H3.94019Z" fill="black"/>
<path d="M64.8038 0H62.479V61.0257H64.8038V0Z" fill="black"/>
<path d="M97.3653 13.286V31.776C97.3653 34.879 96.9842 37.1632 96.2232 38.6274C95.3159 40.4137 94.0275 41.8189 92.358 42.843C90.6897 43.8683 88.8444 44.3797 86.8245 44.3797C83.7793 44.3797 81.2542 43.3483 79.249 41.2829C77.2439 39.2187 76.2407 36.6051 76.2407 33.4431C76.2407 30.5159 77.1923 28.0116 79.0954 25.9327C81.0858 23.7075 83.59 22.5949 86.6057 22.5949C88.7141 22.5949 90.6172 23.0781 92.315 24.0444V28.0854C90.5877 26.797 88.8309 26.1528 87.0446 26.1528C85.0247 26.1528 83.3626 26.8413 82.0594 28.2169C80.7563 29.5926 80.1047 31.3789 80.1047 33.5746C80.1047 35.7125 80.7415 37.4546 82.0152 38.8008C83.2888 40.1469 84.9067 40.8206 86.8688 40.8206C88.8297 40.8206 90.4402 40.1469 91.6991 38.8008C92.958 37.4546 93.5874 35.6683 93.5874 33.4418V13.286H97.3653Z" fill="#1D1D1B"/>
<path d="M102.371 18.6228C101.932 18.1691 101.712 17.6196 101.712 16.9754C101.712 16.3324 101.932 15.789 102.371 15.3502C102.81 14.9113 103.352 14.6912 103.996 14.6912C104.641 14.6912 105.183 14.9113 105.622 15.3502C106.061 15.789 106.281 16.3312 106.281 16.9754C106.281 17.6196 106.061 18.1691 105.622 18.6228C105.183 19.0764 104.641 19.3026 103.996 19.3026C103.351 19.3026 102.81 19.0764 102.371 18.6228ZM102.107 43.9851V22.949H105.883V43.9851H102.107Z" fill="#1D1D1B"/>
<path d="M130.918 42.7557C130.918 46.2091 129.951 48.9113 128.019 50.8586C126.086 52.806 123.466 53.7796 120.158 53.7796C118.138 53.7796 115.927 53.385 113.527 52.5933L114.362 48.9924C116.792 49.7829 118.753 50.1788 120.247 50.1788C122.383 50.1788 124.068 49.5555 125.297 48.3113C126.526 47.0672 127.141 45.3313 127.141 43.1073V33.4886C127.141 31.2646 126.512 29.4783 125.253 28.1309C123.994 26.7847 122.383 26.111 120.422 26.111C118.46 26.111 116.842 26.7847 115.569 28.1309C114.295 29.4783 113.658 31.2203 113.658 33.357C113.658 35.5527 114.31 37.339 115.613 38.7147C116.915 40.0916 118.577 40.7788 120.598 40.7788C122.383 40.7788 124.14 40.1346 125.869 38.8462V42.886C124.171 43.8523 122.268 44.3355 120.159 44.3355C118.08 44.3355 116.192 43.7503 114.494 42.5787C111.391 40.4125 109.839 37.3673 109.839 33.4431C109.839 30.2811 110.833 27.676 112.825 25.6254C114.815 23.5772 117.333 22.5519 120.378 22.5519C122.398 22.5519 124.243 23.056 125.912 24.0665C127.58 25.0771 128.868 26.4761 129.777 28.2612C130.538 29.7537 130.919 32.0526 130.919 35.1556V42.7557H130.918Z" fill="#1D1D1B"/>
<path d="M136.012 18.6228C135.574 18.1691 135.354 17.6196 135.354 16.9754C135.354 16.3324 135.574 15.789 136.012 15.3502C136.451 14.9113 136.994 14.6912 137.638 14.6912C138.282 14.6912 138.824 14.9113 139.263 15.3502C139.702 15.789 139.922 16.3312 139.922 16.9754C139.922 17.6196 139.702 18.1691 139.263 18.6228C138.824 19.0764 138.282 19.3026 137.638 19.3026C136.994 19.3026 136.451 19.0764 136.012 18.6228ZM135.749 43.9851V22.949H139.526V43.9851H135.749Z" fill="#1D1D1B"/>
<path d="M144.445 17.37H148.221V22.9478H154.59V26.5056H148.221V35.5084C148.221 37.2062 148.639 38.4442 149.473 39.22C150.308 39.9957 151.617 40.3842 153.403 40.3842H154.59V43.9851H153.36C147.416 43.9851 144.445 41.38 144.445 36.1674V17.37Z" fill="#1D1D1B"/>
<path d="M174.615 43.9851V33.4886C174.615 31.2646 173.986 29.4783 172.727 28.1309C171.468 26.7847 169.857 26.111 167.897 26.111C165.934 26.111 164.317 26.7847 163.043 28.1309C161.769 29.4783 161.132 31.2203 161.132 33.357C161.132 35.5527 161.784 37.339 163.087 38.7147C164.389 40.0916 166.051 40.7788 168.072 40.7788C169.857 40.7788 171.614 40.1346 173.343 38.8462V42.886C171.645 43.8523 169.742 44.3355 167.633 44.3355C165.555 44.3355 163.666 43.7503 161.968 42.5787C158.865 40.4125 157.313 37.3673 157.313 33.4431C157.313 30.2811 158.307 27.676 160.299 25.6254C162.289 23.5772 164.808 22.5519 167.852 22.5519C169.872 22.5519 171.718 23.056 173.386 24.0665C175.054 25.0771 176.342 26.4761 177.251 28.2612C178.012 29.7537 178.393 32.0526 178.393 35.1556V43.9826H174.615V43.9851Z" fill="#1D1D1B"/>
<path d="M183.223 43.9851V13.286H187V43.9851H183.223Z" fill="#1D1D1B"/>
<defs>
<linearGradient id="paint0_linear_50_222" x1="30.8536" y1="32.6765" x2="50.5174" y2="41.3945" gradientUnits="userSpaceOnUse">
<stop stop-color="#372A86"/>
<stop offset="1" stop-color="#3B58CC"/>
</linearGradient>
<linearGradient id="paint1_linear_50_222" x1="25.57" y1="28.0837" x2="49.5928" y2="10.9707" gradientUnits="userSpaceOnUse">
<stop stop-color="#F921C1"/>
<stop offset="0.522" stop-color="#F76363"/>
<stop offset="1" stop-color="#F6973D"/>
</linearGradient>
</defs>
</svg>
