<svg width="53" height="39" viewBox="0 0 53 39" fill="none" xmlns="http://www.w3.org/2000/svg">
<path d="M52.4482 24.9173C52.4482 32.6145 46.209 38.8561 38.5094 38.8561C31.7158 38.8561 26.0544 33.9939 24.8214 27.558C24.6566 26.7036 24.5706 25.8197 24.5706 24.9173C24.5706 24.6653 24.5779 24.4157 24.5902 24.1674H36.1428V26.9704C36.6087 27.4203 37.2333 27.6957 37.9193 27.6957C39.3048 27.6957 40.4383 26.5757 40.5293 25.157C40.5342 25.0968 40.5354 25.0353 40.5354 24.9738C40.5354 24.4034 40.3658 23.8723 40.0744 23.4359L40.5354 22.6011L41.6923 20.5013C42.0721 20.7816 42.4164 21.1074 42.7176 21.4689C43.5536 22.4733 44.0552 23.7641 44.0552 25.173C44.0552 28.3793 41.4587 30.9757 38.2537 30.9757C35.8982 30.9757 33.8709 29.5742 32.9624 27.558H28.2071C29.3836 32.1522 33.5512 35.5503 38.5106 35.5503C44.3834 35.5503 49.1436 30.7889 49.1436 24.9173C49.1436 21.6988 47.7138 18.8121 45.4505 16.8636C45.0608 16.5242 44.644 16.2169 44.2064 15.9378L45.8033 13.0377C46.2742 13.3266 46.7254 13.6438 47.1569 13.9868C50.3804 16.5365 52.4482 20.4853 52.4482 24.9173Z" fill="url(#paint0_linear_2001_16)"/>
<path d="M40.5293 25.157C40.5343 25.0968 40.5355 25.0353 40.5355 24.9738C40.5355 24.4034 40.3658 23.8723 40.0745 23.4359L40.5355 22.6011L41.6923 20.5013C42.0722 20.7816 42.4165 21.1074 42.7177 21.4688L40.5293 25.157Z" fill="#CFCCC9"/>
<path d="M47.1568 13.9856L45.4504 16.8623C45.0607 16.523 44.644 16.2157 44.2063 15.9366L45.8033 13.0365C46.2741 13.3254 46.7265 13.6426 47.1568 13.9856Z" fill="#CFCCC9"/>
<path d="M25.8911 0V10.9785H34.9001L34.6358 11.5255L32.3565 16.2452L32.3552 16.2464L31.2672 18.5023L31.2992 21.7147C31.2992 21.7147 32.3098 21.6938 33.5896 21.7221C35.4386 21.7602 37.8125 21.9667 38.5772 22.3405C38.7345 22.3835 38.887 22.4401 39.0308 22.5126C39.4513 22.7179 39.8127 23.0375 40.0721 23.4334L40.0746 23.4359L40.5356 22.6011L41.6925 20.5013L44.2078 15.9378L45.8048 13.0377L46.5166 11.7468L51.176 3.2923V0H25.8911ZM42.8481 11.6669L41.2523 14.6408L38.8956 19.0334L34.8275 18.5257L36.8413 14.4134L38.5243 10.9772L40.082 7.7968H29.1367V3.0981H47.4448L42.8481 11.6669Z" fill="url(#paint1_linear_2001_16)"/>
<path d="M3.94019 31.7846H0V7.07019H3.94142V17.4905H14.5953V7.07019H18.5367V31.7846H14.5953V20.9636H3.94142V31.7846H3.94019Z" fill="black"/>
<defs>
<linearGradient id="paint0_linear_2001_16" x1="30.8536" y1="21.5911" x2="50.5174" y2="30.3091" gradientUnits="userSpaceOnUse">
<stop stop-color="#372A86"/>
<stop offset="1" stop-color="#3B58CC"/>
</linearGradient>
<linearGradient id="paint1_linear_2001_16" x1="25.57" y1="16.9983" x2="49.5928" y2="-0.114697" gradientUnits="userSpaceOnUse">
<stop stop-color="#F921C1"/>
<stop offset="0.522" stop-color="#F76363"/>
<stop offset="1" stop-color="#F6973D"/>
</linearGradient>
</defs>
</svg>
